<svg xmlns="http://www.w3.org/2000/svg" viewBox="0 0 100 100" preserveAspectRatio="xMidYMid" width="99" height="99" style="shape-rendering: auto; display: block; background: transparent;" xmlns:xlink="http://www.w3.org/1999/xlink"><g><g transform="rotate(0 50 50)">
  <rect fill="#f2913e" height="1" width="18" ry="0.5" rx="9" y="10.5" x="41">
    <animate repeatCount="indefinite" begin="-3.4137931034482754s" dur="3.4482758620689653s" keyTimes="0;1" values="1;0" attributeName="opacity"></animate>
  </rect>
</g><g transform="rotate(3.6 50 50)">
  <rect fill="#f2913e" height="1" width="18" ry="0.5" rx="9" y="10.5" x="41">
    <animate repeatCount="indefinite" begin="-3.379310344827586s" dur="3.4482758620689653s" keyTimes="0;1" values="1;0" attributeName="opacity"></animate>
  </rect>
</g><g transform="rotate(7.2 50 50)">
  <rect fill="#f2913e" height="1" width="18" ry="0.5" rx="9" y="10.5" x="41">
    <animate repeatCount="indefinite" begin="-3.3448275862068964s" dur="3.4482758620689653s" keyTimes="0;1" values="1;0" attributeName="opacity"></animate>
  </rect>
</g><g transform="rotate(10.8 50 50)">
  <rect fill="#f2913e" height="1" width="18" ry="0.5" rx="9" y="10.5" x="41">
    <animate repeatCount="indefinite" begin="-3.3103448275862064s" dur="3.4482758620689653s" keyTimes="0;1" values="1;0" attributeName="opacity"></animate>
  </rect>
</g><g transform="rotate(14.4 50 50)">
  <rect fill="#f2913e" height="1" width="18" ry="0.5" rx="9" y="10.5" x="41">
    <animate repeatCount="indefinite" begin="-3.275862068965517s" dur="3.4482758620689653s" keyTimes="0;1" values="1;0" attributeName="opacity"></animate>
  </rect>
</g><g transform="rotate(18 50 50)">
  <rect fill="#f2913e" height="1" width="18" ry="0.5" rx="9" y="10.5" x="41">
    <animate repeatCount="indefinite" begin="-3.2413793103448274s" dur="3.4482758620689653s" keyTimes="0;1" values="1;0" attributeName="opacity"></animate>
  </rect>
</g><g transform="rotate(21.6 50 50)">
  <rect fill="#f2913e" height="1" width="18" ry="0.5" rx="9" y="10.5" x="41">
    <animate repeatCount="indefinite" begin="-3.2068965517241375s" dur="3.4482758620689653s" keyTimes="0;1" values="1;0" attributeName="opacity"></animate>
  </rect>
</g><g transform="rotate(25.2 50 50)">
  <rect fill="#f2913e" height="1" width="18" ry="0.5" rx="9" y="10.5" x="41">
    <animate repeatCount="indefinite" begin="-3.172413793103448s" dur="3.4482758620689653s" keyTimes="0;1" values="1;0" attributeName="opacity"></animate>
  </rect>
</g><g transform="rotate(28.8 50 50)">
  <rect fill="#f2913e" height="1" width="18" ry="0.5" rx="9" y="10.5" x="41">
    <animate repeatCount="indefinite" begin="-3.1379310344827585s" dur="3.4482758620689653s" keyTimes="0;1" values="1;0" attributeName="opacity"></animate>
  </rect>
</g><g transform="rotate(32.4 50 50)">
  <rect fill="#f2913e" height="1" width="18" ry="0.5" rx="9" y="10.5" x="41">
    <animate repeatCount="indefinite" begin="-3.1034482758620685s" dur="3.4482758620689653s" keyTimes="0;1" values="1;0" attributeName="opacity"></animate>
  </rect>
</g><g transform="rotate(36 50 50)">
  <rect fill="#f2913e" height="1" width="18" ry="0.5" rx="9" y="10.5" x="41">
    <animate repeatCount="indefinite" begin="-3.068965517241379s" dur="3.4482758620689653s" keyTimes="0;1" values="1;0" attributeName="opacity"></animate>
  </rect>
</g><g transform="rotate(39.6 50 50)">
  <rect fill="#f2913e" height="1" width="18" ry="0.5" rx="9" y="10.5" x="41">
    <animate repeatCount="indefinite" begin="-3.0344827586206895s" dur="3.4482758620689653s" keyTimes="0;1" values="1;0" attributeName="opacity"></animate>
  </rect>
</g><g transform="rotate(43.2 50 50)">
  <rect fill="#f2913e" height="1" width="18" ry="0.5" rx="9" y="10.5" x="41">
    <animate repeatCount="indefinite" begin="-2.9999999999999996s" dur="3.4482758620689653s" keyTimes="0;1" values="1;0" attributeName="opacity"></animate>
  </rect>
</g><g transform="rotate(46.8 50 50)">
  <rect fill="#f2913e" height="1" width="18" ry="0.5" rx="9" y="10.5" x="41">
    <animate repeatCount="indefinite" begin="-2.96551724137931s" dur="3.4482758620689653s" keyTimes="0;1" values="1;0" attributeName="opacity"></animate>
  </rect>
</g><g transform="rotate(50.4 50 50)">
  <rect fill="#f2913e" height="1" width="18" ry="0.5" rx="9" y="10.5" x="41">
    <animate repeatCount="indefinite" begin="-2.9310344827586206s" dur="3.4482758620689653s" keyTimes="0;1" values="1;0" attributeName="opacity"></animate>
  </rect>
</g><g transform="rotate(54 50 50)">
  <rect fill="#f2913e" height="1" width="18" ry="0.5" rx="9" y="10.5" x="41">
    <animate repeatCount="indefinite" begin="-2.8965517241379306s" dur="3.4482758620689653s" keyTimes="0;1" values="1;0" attributeName="opacity"></animate>
  </rect>
</g><g transform="rotate(57.6 50 50)">
  <rect fill="#f2913e" height="1" width="18" ry="0.5" rx="9" y="10.5" x="41">
    <animate repeatCount="indefinite" begin="-2.862068965517241s" dur="3.4482758620689653s" keyTimes="0;1" values="1;0" attributeName="opacity"></animate>
  </rect>
</g><g transform="rotate(61.2 50 50)">
  <rect fill="#f2913e" height="1" width="18" ry="0.5" rx="9" y="10.5" x="41">
    <animate repeatCount="indefinite" begin="-2.827586206896551s" dur="3.4482758620689653s" keyTimes="0;1" values="1;0" attributeName="opacity"></animate>
  </rect>
</g><g transform="rotate(64.8 50 50)">
  <rect fill="#f2913e" height="1" width="18" ry="0.5" rx="9" y="10.5" x="41">
    <animate repeatCount="indefinite" begin="-2.7931034482758617s" dur="3.4482758620689653s" keyTimes="0;1" values="1;0" attributeName="opacity"></animate>
  </rect>
</g><g transform="rotate(68.4 50 50)">
  <rect fill="#f2913e" height="1" width="18" ry="0.5" rx="9" y="10.5" x="41">
    <animate repeatCount="indefinite" begin="-2.758620689655172s" dur="3.4482758620689653s" keyTimes="0;1" values="1;0" attributeName="opacity"></animate>
  </rect>
</g><g transform="rotate(72 50 50)">
  <rect fill="#f2913e" height="1" width="18" ry="0.5" rx="9" y="10.5" x="41">
    <animate repeatCount="indefinite" begin="-2.724137931034482s" dur="3.4482758620689653s" keyTimes="0;1" values="1;0" attributeName="opacity"></animate>
  </rect>
</g><g transform="rotate(75.6 50 50)">
  <rect fill="#f2913e" height="1" width="18" ry="0.5" rx="9" y="10.5" x="41">
    <animate repeatCount="indefinite" begin="-2.6896551724137927s" dur="3.4482758620689653s" keyTimes="0;1" values="1;0" attributeName="opacity"></animate>
  </rect>
</g><g transform="rotate(79.2 50 50)">
  <rect fill="#f2913e" height="1" width="18" ry="0.5" rx="9" y="10.5" x="41">
    <animate repeatCount="indefinite" begin="-2.655172413793103s" dur="3.4482758620689653s" keyTimes="0;1" values="1;0" attributeName="opacity"></animate>
  </rect>
</g><g transform="rotate(82.8 50 50)">
  <rect fill="#f2913e" height="1" width="18" ry="0.5" rx="9" y="10.5" x="41">
    <animate repeatCount="indefinite" begin="-2.6206896551724133s" dur="3.4482758620689653s" keyTimes="0;1" values="1;0" attributeName="opacity"></animate>
  </rect>
</g><g transform="rotate(86.4 50 50)">
  <rect fill="#f2913e" height="1" width="18" ry="0.5" rx="9" y="10.5" x="41">
    <animate repeatCount="indefinite" begin="-2.5862068965517238s" dur="3.4482758620689653s" keyTimes="0;1" values="1;0" attributeName="opacity"></animate>
  </rect>
</g><g transform="rotate(90 50 50)">
  <rect fill="#f2913e" height="1" width="18" ry="0.5" rx="9" y="10.5" x="41">
    <animate repeatCount="indefinite" begin="-2.5517241379310343s" dur="3.4482758620689653s" keyTimes="0;1" values="1;0" attributeName="opacity"></animate>
  </rect>
</g><g transform="rotate(93.6 50 50)">
  <rect fill="#f2913e" height="1" width="18" ry="0.5" rx="9" y="10.5" x="41">
    <animate repeatCount="indefinite" begin="-2.5172413793103443s" dur="3.4482758620689653s" keyTimes="0;1" values="1;0" attributeName="opacity"></animate>
  </rect>
</g><g transform="rotate(97.2 50 50)">
  <rect fill="#f2913e" height="1" width="18" ry="0.5" rx="9" y="10.5" x="41">
    <animate repeatCount="indefinite" begin="-2.482758620689655s" dur="3.4482758620689653s" keyTimes="0;1" values="1;0" attributeName="opacity"></animate>
  </rect>
</g><g transform="rotate(100.8 50 50)">
  <rect fill="#f2913e" height="1" width="18" ry="0.5" rx="9" y="10.5" x="41">
    <animate repeatCount="indefinite" begin="-2.4482758620689653s" dur="3.4482758620689653s" keyTimes="0;1" values="1;0" attributeName="opacity"></animate>
  </rect>
</g><g transform="rotate(104.4 50 50)">
  <rect fill="#f2913e" height="1" width="18" ry="0.5" rx="9" y="10.5" x="41">
    <animate repeatCount="indefinite" begin="-2.4137931034482754s" dur="3.4482758620689653s" keyTimes="0;1" values="1;0" attributeName="opacity"></animate>
  </rect>
</g><g transform="rotate(108 50 50)">
  <rect fill="#f2913e" height="1" width="18" ry="0.5" rx="9" y="10.5" x="41">
    <animate repeatCount="indefinite" begin="-2.379310344827586s" dur="3.4482758620689653s" keyTimes="0;1" values="1;0" attributeName="opacity"></animate>
  </rect>
</g><g transform="rotate(111.6 50 50)">
  <rect fill="#f2913e" height="1" width="18" ry="0.5" rx="9" y="10.5" x="41">
    <animate repeatCount="indefinite" begin="-2.3448275862068964s" dur="3.4482758620689653s" keyTimes="0;1" values="1;0" attributeName="opacity"></animate>
  </rect>
</g><g transform="rotate(115.2 50 50)">
  <rect fill="#f2913e" height="1" width="18" ry="0.5" rx="9" y="10.5" x="41">
    <animate repeatCount="indefinite" begin="-2.3103448275862064s" dur="3.4482758620689653s" keyTimes="0;1" values="1;0" attributeName="opacity"></animate>
  </rect>
</g><g transform="rotate(118.8 50 50)">
  <rect fill="#f2913e" height="1" width="18" ry="0.5" rx="9" y="10.5" x="41">
    <animate repeatCount="indefinite" begin="-2.275862068965517s" dur="3.4482758620689653s" keyTimes="0;1" values="1;0" attributeName="opacity"></animate>
  </rect>
</g><g transform="rotate(122.4 50 50)">
  <rect fill="#f2913e" height="1" width="18" ry="0.5" rx="9" y="10.5" x="41">
    <animate repeatCount="indefinite" begin="-2.2413793103448274s" dur="3.4482758620689653s" keyTimes="0;1" values="1;0" attributeName="opacity"></animate>
  </rect>
</g><g transform="rotate(126 50 50)">
  <rect fill="#f2913e" height="1" width="18" ry="0.5" rx="9" y="10.5" x="41">
    <animate repeatCount="indefinite" begin="-2.2068965517241375s" dur="3.4482758620689653s" keyTimes="0;1" values="1;0" attributeName="opacity"></animate>
  </rect>
</g><g transform="rotate(129.6 50 50)">
  <rect fill="#f2913e" height="1" width="18" ry="0.5" rx="9" y="10.5" x="41">
    <animate repeatCount="indefinite" begin="-2.172413793103448s" dur="3.4482758620689653s" keyTimes="0;1" values="1;0" attributeName="opacity"></animate>
  </rect>
</g><g transform="rotate(133.2 50 50)">
  <rect fill="#f2913e" height="1" width="18" ry="0.5" rx="9" y="10.5" x="41">
    <animate repeatCount="indefinite" begin="-2.1379310344827585s" dur="3.4482758620689653s" keyTimes="0;1" values="1;0" attributeName="opacity"></animate>
  </rect>
</g><g transform="rotate(136.8 50 50)">
  <rect fill="#f2913e" height="1" width="18" ry="0.5" rx="9" y="10.5" x="41">
    <animate repeatCount="indefinite" begin="-2.1034482758620685s" dur="3.4482758620689653s" keyTimes="0;1" values="1;0" attributeName="opacity"></animate>
  </rect>
</g><g transform="rotate(140.4 50 50)">
  <rect fill="#f2913e" height="1" width="18" ry="0.5" rx="9" y="10.5" x="41">
    <animate repeatCount="indefinite" begin="-2.068965517241379s" dur="3.4482758620689653s" keyTimes="0;1" values="1;0" attributeName="opacity"></animate>
  </rect>
</g><g transform="rotate(144 50 50)">
  <rect fill="#f2913e" height="1" width="18" ry="0.5" rx="9" y="10.5" x="41">
    <animate repeatCount="indefinite" begin="-2.0344827586206895s" dur="3.4482758620689653s" keyTimes="0;1" values="1;0" attributeName="opacity"></animate>
  </rect>
</g><g transform="rotate(147.6 50 50)">
  <rect fill="#f2913e" height="1" width="18" ry="0.5" rx="9" y="10.5" x="41">
    <animate repeatCount="indefinite" begin="-1.9999999999999998s" dur="3.4482758620689653s" keyTimes="0;1" values="1;0" attributeName="opacity"></animate>
  </rect>
</g><g transform="rotate(151.2 50 50)">
  <rect fill="#f2913e" height="1" width="18" ry="0.5" rx="9" y="10.5" x="41">
    <animate repeatCount="indefinite" begin="-1.96551724137931s" dur="3.4482758620689653s" keyTimes="0;1" values="1;0" attributeName="opacity"></animate>
  </rect>
</g><g transform="rotate(154.8 50 50)">
  <rect fill="#f2913e" height="1" width="18" ry="0.5" rx="9" y="10.5" x="41">
    <animate repeatCount="indefinite" begin="-1.9310344827586206s" dur="3.4482758620689653s" keyTimes="0;1" values="1;0" attributeName="opacity"></animate>
  </rect>
</g><g transform="rotate(158.4 50 50)">
  <rect fill="#f2913e" height="1" width="18" ry="0.5" rx="9" y="10.5" x="41">
    <animate repeatCount="indefinite" begin="-1.8965517241379308s" dur="3.4482758620689653s" keyTimes="0;1" values="1;0" attributeName="opacity"></animate>
  </rect>
</g><g transform="rotate(162 50 50)">
  <rect fill="#f2913e" height="1" width="18" ry="0.5" rx="9" y="10.5" x="41">
    <animate repeatCount="indefinite" begin="-1.862068965517241s" dur="3.4482758620689653s" keyTimes="0;1" values="1;0" attributeName="opacity"></animate>
  </rect>
</g><g transform="rotate(165.6 50 50)">
  <rect fill="#f2913e" height="1" width="18" ry="0.5" rx="9" y="10.5" x="41">
    <animate repeatCount="indefinite" begin="-1.8275862068965516s" dur="3.4482758620689653s" keyTimes="0;1" values="1;0" attributeName="opacity"></animate>
  </rect>
</g><g transform="rotate(169.2 50 50)">
  <rect fill="#f2913e" height="1" width="18" ry="0.5" rx="9" y="10.5" x="41">
    <animate repeatCount="indefinite" begin="-1.7931034482758619s" dur="3.4482758620689653s" keyTimes="0;1" values="1;0" attributeName="opacity"></animate>
  </rect>
</g><g transform="rotate(172.8 50 50)">
  <rect fill="#f2913e" height="1" width="18" ry="0.5" rx="9" y="10.5" x="41">
    <animate repeatCount="indefinite" begin="-1.7586206896551722s" dur="3.4482758620689653s" keyTimes="0;1" values="1;0" attributeName="opacity"></animate>
  </rect>
</g><g transform="rotate(176.4 50 50)">
  <rect fill="#f2913e" height="1" width="18" ry="0.5" rx="9" y="10.5" x="41">
    <animate repeatCount="indefinite" begin="-1.7241379310344827s" dur="3.4482758620689653s" keyTimes="0;1" values="1;0" attributeName="opacity"></animate>
  </rect>
</g><g transform="rotate(180 50 50)">
  <rect fill="#f2913e" height="1" width="18" ry="0.5" rx="9" y="10.5" x="41">
    <animate repeatCount="indefinite" begin="-1.689655172413793s" dur="3.4482758620689653s" keyTimes="0;1" values="1;0" attributeName="opacity"></animate>
  </rect>
</g><g transform="rotate(183.6 50 50)">
  <rect fill="#f2913e" height="1" width="18" ry="0.5" rx="9" y="10.5" x="41">
    <animate repeatCount="indefinite" begin="-1.6551724137931032s" dur="3.4482758620689653s" keyTimes="0;1" values="1;0" attributeName="opacity"></animate>
  </rect>
</g><g transform="rotate(187.2 50 50)">
  <rect fill="#f2913e" height="1" width="18" ry="0.5" rx="9" y="10.5" x="41">
    <animate repeatCount="indefinite" begin="-1.6206896551724137s" dur="3.4482758620689653s" keyTimes="0;1" values="1;0" attributeName="opacity"></animate>
  </rect>
</g><g transform="rotate(190.8 50 50)">
  <rect fill="#f2913e" height="1" width="18" ry="0.5" rx="9" y="10.5" x="41">
    <animate repeatCount="indefinite" begin="-1.586206896551724s" dur="3.4482758620689653s" keyTimes="0;1" values="1;0" attributeName="opacity"></animate>
  </rect>
</g><g transform="rotate(194.4 50 50)">
  <rect fill="#f2913e" height="1" width="18" ry="0.5" rx="9" y="10.5" x="41">
    <animate repeatCount="indefinite" begin="-1.5517241379310343s" dur="3.4482758620689653s" keyTimes="0;1" values="1;0" attributeName="opacity"></animate>
  </rect>
</g><g transform="rotate(198 50 50)">
  <rect fill="#f2913e" height="1" width="18" ry="0.5" rx="9" y="10.5" x="41">
    <animate repeatCount="indefinite" begin="-1.5172413793103448s" dur="3.4482758620689653s" keyTimes="0;1" values="1;0" attributeName="opacity"></animate>
  </rect>
</g><g transform="rotate(201.6 50 50)">
  <rect fill="#f2913e" height="1" width="18" ry="0.5" rx="9" y="10.5" x="41">
    <animate repeatCount="indefinite" begin="-1.482758620689655s" dur="3.4482758620689653s" keyTimes="0;1" values="1;0" attributeName="opacity"></animate>
  </rect>
</g><g transform="rotate(205.2 50 50)">
  <rect fill="#f2913e" height="1" width="18" ry="0.5" rx="9" y="10.5" x="41">
    <animate repeatCount="indefinite" begin="-1.4482758620689653s" dur="3.4482758620689653s" keyTimes="0;1" values="1;0" attributeName="opacity"></animate>
  </rect>
</g><g transform="rotate(208.8 50 50)">
  <rect fill="#f2913e" height="1" width="18" ry="0.5" rx="9" y="10.5" x="41">
    <animate repeatCount="indefinite" begin="-1.4137931034482756s" dur="3.4482758620689653s" keyTimes="0;1" values="1;0" attributeName="opacity"></animate>
  </rect>
</g><g transform="rotate(212.4 50 50)">
  <rect fill="#f2913e" height="1" width="18" ry="0.5" rx="9" y="10.5" x="41">
    <animate repeatCount="indefinite" begin="-1.379310344827586s" dur="3.4482758620689653s" keyTimes="0;1" values="1;0" attributeName="opacity"></animate>
  </rect>
</g><g transform="rotate(216 50 50)">
  <rect fill="#f2913e" height="1" width="18" ry="0.5" rx="9" y="10.5" x="41">
    <animate repeatCount="indefinite" begin="-1.3448275862068964s" dur="3.4482758620689653s" keyTimes="0;1" values="1;0" attributeName="opacity"></animate>
  </rect>
</g><g transform="rotate(219.6 50 50)">
  <rect fill="#f2913e" height="1" width="18" ry="0.5" rx="9" y="10.5" x="41">
    <animate repeatCount="indefinite" begin="-1.3103448275862066s" dur="3.4482758620689653s" keyTimes="0;1" values="1;0" attributeName="opacity"></animate>
  </rect>
</g><g transform="rotate(223.2 50 50)">
  <rect fill="#f2913e" height="1" width="18" ry="0.5" rx="9" y="10.5" x="41">
    <animate repeatCount="indefinite" begin="-1.2758620689655171s" dur="3.4482758620689653s" keyTimes="0;1" values="1;0" attributeName="opacity"></animate>
  </rect>
</g><g transform="rotate(226.8 50 50)">
  <rect fill="#f2913e" height="1" width="18" ry="0.5" rx="9" y="10.5" x="41">
    <animate repeatCount="indefinite" begin="-1.2413793103448274s" dur="3.4482758620689653s" keyTimes="0;1" values="1;0" attributeName="opacity"></animate>
  </rect>
</g><g transform="rotate(230.4 50 50)">
  <rect fill="#f2913e" height="1" width="18" ry="0.5" rx="9" y="10.5" x="41">
    <animate repeatCount="indefinite" begin="-1.2068965517241377s" dur="3.4482758620689653s" keyTimes="0;1" values="1;0" attributeName="opacity"></animate>
  </rect>
</g><g transform="rotate(234 50 50)">
  <rect fill="#f2913e" height="1" width="18" ry="0.5" rx="9" y="10.5" x="41">
    <animate repeatCount="indefinite" begin="-1.1724137931034482s" dur="3.4482758620689653s" keyTimes="0;1" values="1;0" attributeName="opacity"></animate>
  </rect>
</g><g transform="rotate(237.6 50 50)">
  <rect fill="#f2913e" height="1" width="18" ry="0.5" rx="9" y="10.5" x="41">
    <animate repeatCount="indefinite" begin="-1.1379310344827585s" dur="3.4482758620689653s" keyTimes="0;1" values="1;0" attributeName="opacity"></animate>
  </rect>
</g><g transform="rotate(241.2 50 50)">
  <rect fill="#f2913e" height="1" width="18" ry="0.5" rx="9" y="10.5" x="41">
    <animate repeatCount="indefinite" begin="-1.1034482758620687s" dur="3.4482758620689653s" keyTimes="0;1" values="1;0" attributeName="opacity"></animate>
  </rect>
</g><g transform="rotate(244.8 50 50)">
  <rect fill="#f2913e" height="1" width="18" ry="0.5" rx="9" y="10.5" x="41">
    <animate repeatCount="indefinite" begin="-1.0689655172413792s" dur="3.4482758620689653s" keyTimes="0;1" values="1;0" attributeName="opacity"></animate>
  </rect>
</g><g transform="rotate(248.4 50 50)">
  <rect fill="#f2913e" height="1" width="18" ry="0.5" rx="9" y="10.5" x="41">
    <animate repeatCount="indefinite" begin="-1.0344827586206895s" dur="3.4482758620689653s" keyTimes="0;1" values="1;0" attributeName="opacity"></animate>
  </rect>
</g><g transform="rotate(252 50 50)">
  <rect fill="#f2913e" height="1" width="18" ry="0.5" rx="9" y="10.5" x="41">
    <animate repeatCount="indefinite" begin="-0.9999999999999999s" dur="3.4482758620689653s" keyTimes="0;1" values="1;0" attributeName="opacity"></animate>
  </rect>
</g><g transform="rotate(255.6 50 50)">
  <rect fill="#f2913e" height="1" width="18" ry="0.5" rx="9" y="10.5" x="41">
    <animate repeatCount="indefinite" begin="-0.9655172413793103s" dur="3.4482758620689653s" keyTimes="0;1" values="1;0" attributeName="opacity"></animate>
  </rect>
</g><g transform="rotate(259.2 50 50)">
  <rect fill="#f2913e" height="1" width="18" ry="0.5" rx="9" y="10.5" x="41">
    <animate repeatCount="indefinite" begin="-0.9310344827586206s" dur="3.4482758620689653s" keyTimes="0;1" values="1;0" attributeName="opacity"></animate>
  </rect>
</g><g transform="rotate(262.8 50 50)">
  <rect fill="#f2913e" height="1" width="18" ry="0.5" rx="9" y="10.5" x="41">
    <animate repeatCount="indefinite" begin="-0.8965517241379309s" dur="3.4482758620689653s" keyTimes="0;1" values="1;0" attributeName="opacity"></animate>
  </rect>
</g><g transform="rotate(266.4 50 50)">
  <rect fill="#f2913e" height="1" width="18" ry="0.5" rx="9" y="10.5" x="41">
    <animate repeatCount="indefinite" begin="-0.8620689655172413s" dur="3.4482758620689653s" keyTimes="0;1" values="1;0" attributeName="opacity"></animate>
  </rect>
</g><g transform="rotate(270 50 50)">
  <rect fill="#f2913e" height="1" width="18" ry="0.5" rx="9" y="10.5" x="41">
    <animate repeatCount="indefinite" begin="-0.8275862068965516s" dur="3.4482758620689653s" keyTimes="0;1" values="1;0" attributeName="opacity"></animate>
  </rect>
</g><g transform="rotate(273.6 50 50)">
  <rect fill="#f2913e" height="1" width="18" ry="0.5" rx="9" y="10.5" x="41">
    <animate repeatCount="indefinite" begin="-0.793103448275862s" dur="3.4482758620689653s" keyTimes="0;1" values="1;0" attributeName="opacity"></animate>
  </rect>
</g><g transform="rotate(277.2 50 50)">
  <rect fill="#f2913e" height="1" width="18" ry="0.5" rx="9" y="10.5" x="41">
    <animate repeatCount="indefinite" begin="-0.7586206896551724s" dur="3.4482758620689653s" keyTimes="0;1" values="1;0" attributeName="opacity"></animate>
  </rect>
</g><g transform="rotate(280.8 50 50)">
  <rect fill="#f2913e" height="1" width="18" ry="0.5" rx="9" y="10.5" x="41">
    <animate repeatCount="indefinite" begin="-0.7241379310344827s" dur="3.4482758620689653s" keyTimes="0;1" values="1;0" attributeName="opacity"></animate>
  </rect>
</g><g transform="rotate(284.4 50 50)">
  <rect fill="#f2913e" height="1" width="18" ry="0.5" rx="9" y="10.5" x="41">
    <animate repeatCount="indefinite" begin="-0.689655172413793s" dur="3.4482758620689653s" keyTimes="0;1" values="1;0" attributeName="opacity"></animate>
  </rect>
</g><g transform="rotate(288 50 50)">
  <rect fill="#f2913e" height="1" width="18" ry="0.5" rx="9" y="10.5" x="41">
    <animate repeatCount="indefinite" begin="-0.6551724137931033s" dur="3.4482758620689653s" keyTimes="0;1" values="1;0" attributeName="opacity"></animate>
  </rect>
</g><g transform="rotate(291.6 50 50)">
  <rect fill="#f2913e" height="1" width="18" ry="0.5" rx="9" y="10.5" x="41">
    <animate repeatCount="indefinite" begin="-0.6206896551724137s" dur="3.4482758620689653s" keyTimes="0;1" values="1;0" attributeName="opacity"></animate>
  </rect>
</g><g transform="rotate(295.2 50 50)">
  <rect fill="#f2913e" height="1" width="18" ry="0.5" rx="9" y="10.5" x="41">
    <animate repeatCount="indefinite" begin="-0.5862068965517241s" dur="3.4482758620689653s" keyTimes="0;1" values="1;0" attributeName="opacity"></animate>
  </rect>
</g><g transform="rotate(298.8 50 50)">
  <rect fill="#f2913e" height="1" width="18" ry="0.5" rx="9" y="10.5" x="41">
    <animate repeatCount="indefinite" begin="-0.5517241379310344s" dur="3.4482758620689653s" keyTimes="0;1" values="1;0" attributeName="opacity"></animate>
  </rect>
</g><g transform="rotate(302.4 50 50)">
  <rect fill="#f2913e" height="1" width="18" ry="0.5" rx="9" y="10.5" x="41">
    <animate repeatCount="indefinite" begin="-0.5172413793103448s" dur="3.4482758620689653s" keyTimes="0;1" values="1;0" attributeName="opacity"></animate>
  </rect>
</g><g transform="rotate(306 50 50)">
  <rect fill="#f2913e" height="1" width="18" ry="0.5" rx="9" y="10.5" x="41">
    <animate repeatCount="indefinite" begin="-0.48275862068965514s" dur="3.4482758620689653s" keyTimes="0;1" values="1;0" attributeName="opacity"></animate>
  </rect>
</g><g transform="rotate(309.6 50 50)">
  <rect fill="#f2913e" height="1" width="18" ry="0.5" rx="9" y="10.5" x="41">
    <animate repeatCount="indefinite" begin="-0.44827586206896547s" dur="3.4482758620689653s" keyTimes="0;1" values="1;0" attributeName="opacity"></animate>
  </rect>
</g><g transform="rotate(313.2 50 50)">
  <rect fill="#f2913e" height="1" width="18" ry="0.5" rx="9" y="10.5" x="41">
    <animate repeatCount="indefinite" begin="-0.4137931034482758s" dur="3.4482758620689653s" keyTimes="0;1" values="1;0" attributeName="opacity"></animate>
  </rect>
</g><g transform="rotate(316.8 50 50)">
  <rect fill="#f2913e" height="1" width="18" ry="0.5" rx="9" y="10.5" x="41">
    <animate repeatCount="indefinite" begin="-0.3793103448275862s" dur="3.4482758620689653s" keyTimes="0;1" values="1;0" attributeName="opacity"></animate>
  </rect>
</g><g transform="rotate(320.4 50 50)">
  <rect fill="#f2913e" height="1" width="18" ry="0.5" rx="9" y="10.5" x="41">
    <animate repeatCount="indefinite" begin="-0.3448275862068965s" dur="3.4482758620689653s" keyTimes="0;1" values="1;0" attributeName="opacity"></animate>
  </rect>
</g><g transform="rotate(324 50 50)">
  <rect fill="#f2913e" height="1" width="18" ry="0.5" rx="9" y="10.5" x="41">
    <animate repeatCount="indefinite" begin="-0.31034482758620685s" dur="3.4482758620689653s" keyTimes="0;1" values="1;0" attributeName="opacity"></animate>
  </rect>
</g><g transform="rotate(327.6 50 50)">
  <rect fill="#f2913e" height="1" width="18" ry="0.5" rx="9" y="10.5" x="41">
    <animate repeatCount="indefinite" begin="-0.2758620689655172s" dur="3.4482758620689653s" keyTimes="0;1" values="1;0" attributeName="opacity"></animate>
  </rect>
</g><g transform="rotate(331.2 50 50)">
  <rect fill="#f2913e" height="1" width="18" ry="0.5" rx="9" y="10.5" x="41">
    <animate repeatCount="indefinite" begin="-0.24137931034482757s" dur="3.4482758620689653s" keyTimes="0;1" values="1;0" attributeName="opacity"></animate>
  </rect>
</g><g transform="rotate(334.8 50 50)">
  <rect fill="#f2913e" height="1" width="18" ry="0.5" rx="9" y="10.5" x="41">
    <animate repeatCount="indefinite" begin="-0.2068965517241379s" dur="3.4482758620689653s" keyTimes="0;1" values="1;0" attributeName="opacity"></animate>
  </rect>
</g><g transform="rotate(338.4 50 50)">
  <rect fill="#f2913e" height="1" width="18" ry="0.5" rx="9" y="10.5" x="41">
    <animate repeatCount="indefinite" begin="-0.17241379310344826s" dur="3.4482758620689653s" keyTimes="0;1" values="1;0" attributeName="opacity"></animate>
  </rect>
</g><g transform="rotate(342 50 50)">
  <rect fill="#f2913e" height="1" width="18" ry="0.5" rx="9" y="10.5" x="41">
    <animate repeatCount="indefinite" begin="-0.1379310344827586s" dur="3.4482758620689653s" keyTimes="0;1" values="1;0" attributeName="opacity"></animate>
  </rect>
</g><g transform="rotate(345.6 50 50)">
  <rect fill="#f2913e" height="1" width="18" ry="0.5" rx="9" y="10.5" x="41">
    <animate repeatCount="indefinite" begin="-0.10344827586206895s" dur="3.4482758620689653s" keyTimes="0;1" values="1;0" attributeName="opacity"></animate>
  </rect>
</g><g transform="rotate(349.2 50 50)">
  <rect fill="#f2913e" height="1" width="18" ry="0.5" rx="9" y="10.5" x="41">
    <animate repeatCount="indefinite" begin="-0.0689655172413793s" dur="3.4482758620689653s" keyTimes="0;1" values="1;0" attributeName="opacity"></animate>
  </rect>
</g><g transform="rotate(352.8 50 50)">
  <rect fill="#f2913e" height="1" width="18" ry="0.5" rx="9" y="10.5" x="41">
    <animate repeatCount="indefinite" begin="-0.03448275862068965s" dur="3.4482758620689653s" keyTimes="0;1" values="1;0" attributeName="opacity"></animate>
  </rect>
</g><g transform="rotate(356.4 50 50)">
  <rect fill="#f2913e" height="1" width="18" ry="0.5" rx="9" y="10.5" x="41">
    <animate repeatCount="indefinite" begin="0s" dur="3.4482758620689653s" keyTimes="0;1" values="1;0" attributeName="opacity"></animate>
  </rect>
</g><g></g></g><!-- [ldio] generated by https://loading.io --></svg>